# xmcd
#
# Track frame offsets: 
#        150
#        20071
#        52070
#        72885
#        91128
#        121086
#        131988
#        173083
#        190299
#        224731
#        270740
#        295799
#
# Disc length: 4183 seconds
#
# Revision: 3
# Processed by: cddbd v1.5.2PL0 Copyright (c) Steve Scherf et al.
# Submitted via: ExactAudioCopyFreeDBPlugin 1.0
#
DISCID=bc10550c
DTITLE=Various Artist - Jazzthing enja 24bit master edition
DYEAR=2007
DGENRE=Jazz
TTITLE0=Tommy Flanagan - North of the Sunset
TTITLE1=Chet Baker - The Song Is You
TTITLE2=Walter Norris - A Child Is Born
TTITLE3=Attilla Zoller/Ron Carter/Joe Chambers - Czardanova
TTITLE4=Bennie Wallace - Chick Corea - My one and only Love
TTITLE5=McCoy Tyner - Giant Steps
TTITLE6=Charles Tolliver - Truth
TTITLE7=Bob Degen - In Memory of G. K.
TTITLE8=Hal Galper - Ivory Forest - John Scofield
TTITLE9=Frank Tusa - Dave Liebman - Doin' it
TTITLE10=Kenny Barron - Quiet Times
TTITLE11=Eric Dolphy - Les
EXTD=
EXTT0=
EXTT1=
EXTT2=
EXTT3=
EXTT4=
EXTT5=
EXTT6=
EXTT7=
EXTT8=
EXTT9=
EXTT10=
EXTT11=
PLAYORDER=
